<svg width="175" height="72" viewBox="0 0 175 72" fill="none" xmlns="http://www.w3.org/2000/svg">
    <g clip-path="url(#7houqpyfya)" fill="#fff">
        <path d="M16.786 18.52C7.467 18.96.113 26.658.142 35.912a17.17 17.17 0 0 0 1.904 7.83L.188 52.688c-.1.483.34.907.824.793l8.838-2.077a17.532 17.532 0 0 0 7.52 1.811c9.524.144 17.466-7.357 17.763-16.802.318-10.123-8.105-18.377-18.347-17.893zM27.33 45.47a13.67 13.67 0 0 1-9.69 3.98c-2.143 0-4.194-.477-6.098-1.417l-1.23-.608-5.419 1.273 1.14-5.492-.606-1.177a13.352 13.352 0 0 1-1.49-6.17c0-3.631 1.426-7.044 4.014-9.611a13.784 13.784 0 0 1 9.69-3.981c3.66 0 7.1 1.413 9.689 3.98a13.448 13.448 0 0 1 4.013 9.611 13.56 13.56 0 0 1-4.013 9.611z"/>
        <path d="m26.135 39.623-3.39-.965a1.27 1.27 0 0 0-1.25.326l-.83.838c-.349.353-.88.467-1.342.281-1.603-.644-4.977-3.619-5.838-5.107a1.217 1.217 0 0 1 .098-1.357l.723-.929c.284-.364.344-.852.156-1.273l-1.426-3.2a1.27 1.27 0 0 0-1.974-.448c-.946.794-2.068 2-2.205 3.336-.24 2.356.778 5.326 4.63 8.892 4.45 4.12 8.013 4.663 10.333 4.106 1.316-.316 2.368-1.584 3.031-2.621a1.25 1.25 0 0 0-.716-1.879z"/>
    </g>
    <path d="M48.732 39.322c0 .037-.009.069-.027.096a.2.2 0 0 1-.096.068 1.122 1.122 0 0 1-.184.035c-.073.013-.164.02-.274.02-.118 0-.214-.007-.287-.02a1.116 1.116 0 0 1-.177-.035.2.2 0 0 1-.096-.068.169.169 0 0 1-.028-.096v-3.924h-4.026v3.924c0 .037-.009.069-.027.096a.2.2 0 0 1-.096.068 1.122 1.122 0 0 1-.184.035c-.073.013-.167.02-.28.02-.11 0-.204-.007-.281-.02a1.12 1.12 0 0 1-.185-.035.2.2 0 0 1-.095-.068.168.168 0 0 1-.028-.096v-8.49c0-.036.01-.068.028-.096a.168.168 0 0 1 .095-.061.746.746 0 0 1 .185-.041c.077-.014.17-.02.28-.02.114 0 .208.006.28.02.078.009.14.023.185.04a.168.168 0 0 1 .096.062c.018.028.027.06.027.096v3.541h4.026v-3.541c0-.036.01-.068.028-.096a.168.168 0 0 1 .096-.061 1.614 1.614 0 0 1 .465-.062c.109 0 .2.007.273.02.077.01.139.024.184.042a.168.168 0 0 1 .096.061c.018.028.027.06.027.096v8.49zm6.857.014c0 .055-.018.096-.055.123a.385.385 0 0 1-.15.061c-.064.014-.157.021-.28.021-.119 0-.215-.007-.288-.02a.333.333 0 0 1-.15-.062c-.032-.027-.048-.068-.048-.123v-.615c-.269.287-.57.51-.902.67-.328.16-.677.239-1.046.239-.324 0-.618-.043-.882-.13a1.897 1.897 0 0 1-.67-.362 1.696 1.696 0 0 1-.43-.588c-.1-.233-.15-.497-.15-.793 0-.346.07-.647.211-.902.141-.256.344-.468.608-.636.265-.169.588-.294.971-.376.383-.087.814-.13 1.292-.13h.848v-.479a2.38 2.38 0 0 0-.075-.629 1.033 1.033 0 0 0-.677-.724 1.957 1.957 0 0 0-.656-.096c-.278 0-.53.034-.752.103a3.702 3.702 0 0 0-.581.218c-.164.078-.303.15-.417.22-.11.063-.192.095-.247.095a.168.168 0 0 1-.095-.027.265.265 0 0 1-.075-.082.482.482 0 0 1-.041-.137 1.249 1.249 0 0 1-.014-.192c0-.113.007-.202.02-.266a.426.426 0 0 1 .117-.192c.063-.059.17-.127.32-.205.151-.082.325-.155.52-.218.196-.069.41-.123.643-.164.232-.046.467-.069.704-.069.442 0 .818.05 1.128.15.31.1.56.249.752.445.191.191.33.43.417.718.087.287.13.622.13 1.005v4.149zm-1.121-2.81h-.964c-.31 0-.579.028-.807.082-.228.05-.417.128-.567.233a.957.957 0 0 0-.335.369 1.118 1.118 0 0 0-.103.492c0 .32.1.574.301.766.205.187.49.28.855.28.296 0 .57-.075.82-.225.255-.15.522-.381.8-.691v-1.306zm8.394 2.803c0 .037-.009.069-.027.096a.234.234 0 0 1-.089.061.622.622 0 0 1-.17.041c-.074.01-.165.014-.274.014a2.32 2.32 0 0 1-.28-.014.728.728 0 0 1-.178-.04.232.232 0 0 1-.09-.062.169.169 0 0 1-.026-.096v-5.373h-2.933v5.373c0 .037-.01.069-.027.096a.232.232 0 0 1-.096.061.622.622 0 0 1-.171.041 2.25 2.25 0 0 1-.273.014c-.11 0-.201-.005-.274-.014a.728.728 0 0 1-.178-.04.233.233 0 0 1-.089-.062.21.21 0 0 1-.02-.096v-5.927c0-.136.03-.237.089-.3a.338.338 0 0 1 .26-.103h4.505c.109 0 .193.034.252.103.06.063.09.164.09.3v5.927zm7.568.007c0 .032-.01.062-.028.089a.202.202 0 0 1-.088.068.936.936 0 0 1-.171.034 2.25 2.25 0 0 1-.274.014c-.11 0-.2-.005-.273-.014a1.127 1.127 0 0 1-.178-.034.2.2 0 0 1-.096-.068.157.157 0 0 1-.027-.09v-3.54c0-.178.004-.358.014-.54.009-.187.02-.37.034-.547a6.365 6.365 0 0 1-.349.54c-.123.173-.248.346-.376.52l-2.611 3.568a1.963 1.963 0 0 1-.089.096.258.258 0 0 1-.096.068.532.532 0 0 1-.143.027 1.46 1.46 0 0 1-.219.014c-.1 0-.182-.005-.246-.014a.93.93 0 0 1-.157-.034.208.208 0 0 1-.082-.068.196.196 0 0 1-.02-.09V33.17c0-.032.006-.062.02-.089a.2.2 0 0 1 .089-.068.587.587 0 0 1 .177-.035 2.2 2.2 0 0 1 .267-.013c.219 0 .369.018.451.054.082.032.123.083.123.15v3.562c0 .178-.004.356-.014.534-.009.173-.02.346-.034.52.105-.174.21-.343.315-.507a7.38 7.38 0 0 1 .348-.492l2.646-3.616a.904.904 0 0 1 .082-.096.325.325 0 0 1 .11-.061.535.535 0 0 1 .156-.035c.06-.009.137-.013.233-.013.095 0 .175.004.24.013.067.005.12.017.156.035.041.018.069.04.082.068.019.027.028.06.028.096v6.159zm6.521-.943c0 .077-.002.145-.007.205a.614.614 0 0 1-.068.246.64.64 0 0 1-.11.13c-.054.054-.15.125-.287.212a3.14 3.14 0 0 1-1.018.382c-.2.041-.408.062-.622.062-.442 0-.834-.073-1.176-.219a2.262 2.262 0 0 1-.861-.636 3.02 3.02 0 0 1-.527-1.032 5.11 5.11 0 0 1-.177-1.415c0-.606.073-1.126.218-1.559.15-.437.354-.795.609-1.073.26-.278.563-.483.909-.615.35-.137.73-.205 1.135-.205a3.092 3.092 0 0 1 1.08.198c.155.06.291.128.41.205.123.078.212.144.267.198a.71.71 0 0 1 .109.13c.023.032.041.071.055.117a.619.619 0 0 1 .027.143c.004.055.007.123.007.205 0 .178-.02.303-.062.376-.04.069-.09.103-.15.103-.068 0-.148-.037-.24-.11a3.02 3.02 0 0 0-.334-.253 2.422 2.422 0 0 0-.5-.246 1.818 1.818 0 0 0-.683-.116c-.542 0-.96.21-1.25.63-.288.414-.432 1.018-.432 1.81 0 .397.037.746.11 1.047.077.296.189.544.335.745.146.2.323.35.533.45.214.096.458.144.731.144.26 0 .488-.04.684-.123.196-.082.365-.17.506-.266.146-.1.267-.19.362-.267.1-.082.178-.123.233-.123.032 0 .059.01.082.027a.19.19 0 0 1 .054.096c.018.041.03.096.034.164.01.064.014.141.014.233zm6.132.943c0 .055-.018.096-.055.123a.384.384 0 0 1-.15.061c-.064.014-.157.021-.28.021-.119 0-.215-.007-.287-.02a.333.333 0 0 1-.15-.062c-.033-.027-.049-.068-.049-.123v-.615c-.269.287-.57.51-.902.67-.328.16-.677.239-1.046.239-.323 0-.618-.043-.882-.13a1.899 1.899 0 0 1-.67-.362 1.697 1.697 0 0 1-.43-.588c-.1-.233-.15-.497-.15-.793 0-.346.07-.647.211-.902a1.76 1.76 0 0 1 .609-.636c.264-.169.587-.294.97-.376.383-.087.814-.13 1.292-.13h.848v-.479a2.38 2.38 0 0 0-.075-.629 1.031 1.031 0 0 0-.677-.724 1.957 1.957 0 0 0-.656-.096c-.278 0-.529.034-.752.103a3.7 3.7 0 0 0-.581.218c-.164.078-.303.15-.417.22-.11.063-.192.095-.246.095a.169.169 0 0 1-.096-.027.266.266 0 0 1-.075-.082.486.486 0 0 1-.041-.137 1.261 1.261 0 0 1-.014-.192c0-.113.007-.202.02-.266a.427.427 0 0 1 .117-.192c.064-.059.17-.127.321-.205.15-.082.324-.155.52-.218.195-.069.41-.123.642-.164a3.65 3.65 0 0 1 .704-.069c.442 0 .818.05 1.128.15.31.1.56.249.752.445.192.191.33.43.417.718.087.287.13.622.13 1.005v4.149zm-1.121-2.81h-.964c-.31 0-.579.028-.807.082-.228.05-.417.128-.567.233a.957.957 0 0 0-.335.369 1.116 1.116 0 0 0-.103.492c0 .32.1.574.301.766.205.187.49.28.855.28.296 0 .57-.075.82-.225.255-.15.522-.381.8-.691v-1.306zm7.465-3.014c0 .09-.005.168-.014.232a.457.457 0 0 1-.116.253.181.181 0 0 1-.103.027H87.35v5.305c0 .037-.01.069-.028.096a.233.233 0 0 1-.089.061.622.622 0 0 1-.17.041 2.32 2.32 0 0 1-.28.014c-.11 0-.201-.005-.274-.014a.73.73 0 0 1-.178-.04.233.233 0 0 1-.089-.062.21.21 0 0 1-.02-.096v-5.305h-1.846a.203.203 0 0 1-.103-.027.258.258 0 0 1-.068-.096.818.818 0 0 1-.048-.157 1.836 1.836 0 0 1 0-.458.817.817 0 0 1 .048-.157.242.242 0 0 1 .075-.096.145.145 0 0 1 .096-.034h4.82c.036 0 .068.011.095.034.032.018.057.05.075.096a.608.608 0 0 1 .041.164c.014.064.02.137.02.219zm6.227 3.862c0 .314-.059.608-.177.882-.114.273-.294.51-.54.71-.247.201-.561.36-.944.48-.383.113-.84.17-1.374.17-.123 0-.25-.002-.383-.007-.132 0-.262-.004-.39-.013a9.975 9.975 0 0 1-.738-.055c-.191-.023-.332-.084-.423-.185-.092-.1-.137-.253-.137-.458v-5.721a.17.17 0 0 1 .02-.09.2.2 0 0 1 .09-.068.465.465 0 0 1 .177-.04c.073-.01.164-.014.273-.014.11 0 .2.004.274.013.073.005.13.019.17.041a.2.2 0 0 1 .096.069.138.138 0 0 1 .028.089v2.167c.168-.014.35-.023.547-.028.196-.009.396-.013.601-.013.497 0 .923.05 1.279.15.36.096.654.235.881.417.228.182.397.401.506.656.11.251.164.534.164.848zm-1.19.075c0-.187-.029-.355-.088-.506a.88.88 0 0 0-.294-.39 1.377 1.377 0 0 0-.533-.245 3.134 3.134 0 0 0-.807-.09 11.666 11.666 0 0 0-1.066.049v2.365c.16.018.33.034.513.048.182.013.385.02.608.02.565 0 .984-.11 1.258-.328.273-.223.41-.53.41-.923zm10.884.11c0 .323-.062.613-.185.868-.123.25-.305.462-.547.636a2.732 2.732 0 0 1-.902.39c-.36.086-.779.129-1.258.129-.15 0-.296-.002-.437-.007a6 6 0 0 1-.411-.014 11.41 11.41 0 0 1-.779-.054c-.182-.023-.317-.082-.403-.178-.087-.1-.13-.246-.13-.437v-5.298c0-.187.041-.33.123-.43.087-.101.216-.16.39-.179.118-.013.243-.025.376-.034.136-.009.275-.016.417-.02a12.467 12.467 0 0 1 .895-.028c.442 0 .825.037 1.149.11.323.073.592.18.806.321.214.141.372.314.472.52.105.205.157.44.157.704 0 .346-.093.642-.28.888-.183.246-.454.422-.814.527.451.095.791.28 1.019.553.228.274.342.618.342 1.033zm-1.361-2.858a.947.947 0 0 0-.082-.403.714.714 0 0 0-.273-.3 1.366 1.366 0 0 0-.486-.185 3.557 3.557 0 0 0-.717-.062c-.214 0-.41.007-.588.02-.178.01-.328.021-.451.035v1.914h1.148c.469 0 .827-.087 1.073-.26.251-.178.376-.43.376-.759zm.205 2.878c0-.182-.032-.342-.095-.478a.81.81 0 0 0-.308-.349 1.512 1.512 0 0 0-.533-.205 3.729 3.729 0 0 0-.766-.069h-1.1v2.181a4.7 4.7 0 0 0 .266.034c.096.005.192.012.287.02l.294.014c.101.005.192.007.274.007.296 0 .549-.025.759-.075.209-.054.382-.132.519-.232a.9.9 0 0 0 .308-.362c.063-.146.095-.308.095-.486zm14.588 1.661a.388.388 0 0 1-.082.157.393.393 0 0 1-.15.09 1.362 1.362 0 0 1-.239.04 3.52 3.52 0 0 1-.342.014c-.141 0-.262-.005-.363-.014a1.362 1.362 0 0 1-.239-.04.335.335 0 0 1-.143-.09.474.474 0 0 1-.076-.157l-1.852-6.678h-.014l-1.709 6.678a.374.374 0 0 1-.068.157.344.344 0 0 1-.137.09 1.196 1.196 0 0 1-.232.04c-.091.01-.21.014-.356.014a4.26 4.26 0 0 1-.376-.014c-.1-.009-.182-.022-.246-.04a.393.393 0 0 1-.15-.09.374.374 0 0 1-.068-.157l-2.338-8.169a1.386 1.386 0 0 1-.048-.246c0-.059.018-.105.054-.136a.379.379 0 0 1 .192-.062c.086-.01.203-.014.348-.014.142 0 .253.005.335.014a.556.556 0 0 1 .185.034c.046.018.075.043.089.075a.392.392 0 0 1 .041.123l1.989 7.41h.007l1.887-7.396a.475.475 0 0 1 .048-.123.204.204 0 0 1 .102-.082.758.758 0 0 1 .192-.041c.086-.01.198-.014.334-.014.128 0 .228.005.301.014.078.01.139.023.185.041a.178.178 0 0 1 .096.082.388.388 0 0 1 .054.123l2.03 7.396h.014l1.948-7.403c.014-.045.028-.084.041-.116a.146.146 0 0 1 .082-.082.756.756 0 0 1 .185-.041 3 3 0 0 1 .643.007.32.32 0 0 1 .177.061c.037.032.053.078.048.137 0 .06-.011.141-.034.246l-2.345 8.162zm9.154.09a.17.17 0 0 1-.028.095.232.232 0 0 1-.089.061.622.622 0 0 1-.171.041c-.072.01-.164.014-.273.014-.114 0-.207-.005-.28-.014a.622.622 0 0 1-.171-.04.232.232 0 0 1-.089-.062.17.17 0 0 1-.027-.096v-3.602c0-.351-.028-.634-.082-.848a1.758 1.758 0 0 0-.24-.554 1.023 1.023 0 0 0-.41-.355 1.267 1.267 0 0 0-.574-.123c-.283 0-.565.1-.848.3-.282.201-.578.495-.888.882v4.3a.163.163 0 0 1-.028.096.232.232 0 0 1-.089.061.623.623 0 0 1-.17.041c-.073.01-.167.014-.281.014-.109 0-.2-.005-.273-.014a.736.736 0 0 1-.178-.04.232.232 0 0 1-.089-.062.22.22 0 0 1-.02-.096v-9.133a.22.22 0 0 1 .02-.095.2.2 0 0 1 .089-.069.74.74 0 0 1 .178-.04c.073-.01.164-.015.273-.015.114 0 .208.005.281.014.072.01.129.023.17.041a.2.2 0 0 1 .089.069c.019.027.028.059.028.095v3.685c.323-.342.649-.595.977-.759a2.15 2.15 0 0 1 .991-.253c.411 0 .755.07 1.033.212.282.137.51.321.683.554.173.232.296.506.369.82.078.31.117.686.117 1.128v3.746zm6.692.006c0 .055-.018.096-.055.123a.378.378 0 0 1-.15.061 1.43 1.43 0 0 1-.28.021c-.119 0-.215-.007-.287-.02a.333.333 0 0 1-.151-.062c-.032-.027-.048-.068-.048-.123v-.615c-.269.287-.569.51-.902.67-.328.16-.677.239-1.046.239-.324 0-.617-.043-.882-.13a1.897 1.897 0 0 1-.67-.362 1.688 1.688 0 0 1-.43-.588 1.972 1.972 0 0 1-.151-.793c0-.346.071-.647.212-.902.141-.256.344-.468.609-.636.264-.169.587-.294.97-.376.383-.087.814-.13 1.292-.13h.848v-.479c0-.237-.025-.446-.075-.629a1.03 1.03 0 0 0-.677-.724 1.96 1.96 0 0 0-.656-.096c-.278 0-.529.034-.752.103a3.668 3.668 0 0 0-.581.218c-.164.078-.303.15-.417.22-.11.063-.192.095-.246.095a.168.168 0 0 1-.096-.027.26.26 0 0 1-.075-.082.458.458 0 0 1-.041-.137 1.273 1.273 0 0 1-.014-.192c0-.113.007-.202.021-.266a.417.417 0 0 1 .116-.192c.064-.059.171-.127.321-.205.15-.082.324-.155.52-.218a4.13 4.13 0 0 1 .642-.164c.233-.046.467-.069.704-.069.442 0 .818.05 1.128.15.31.1.561.249.752.445.192.191.331.43.417.718.087.287.13.622.13 1.005v4.149zm-1.121-2.81h-.964c-.31 0-.579.028-.807.082-.227.05-.417.128-.567.233a.96.96 0 0 0-.335.369 1.122 1.122 0 0 0-.103.492c0 .32.101.574.301.766.205.187.49.28.855.28.296 0 .569-.075.82-.225.255-.15.522-.381.8-.691v-1.306zm6.262 2.352c0 .132-.01.237-.028.314a.346.346 0 0 1-.082.171.53.53 0 0 1-.164.103 1.18 1.18 0 0 1-.253.075 2.59 2.59 0 0 1-.608.075c-.319 0-.593-.04-.82-.123a1.37 1.37 0 0 1-.561-.383 1.633 1.633 0 0 1-.321-.65 3.983 3.983 0 0 1-.096-.929v-3.596h-.861c-.069 0-.123-.036-.164-.109-.041-.073-.062-.191-.062-.355 0-.087.005-.16.014-.219a.588.588 0 0 1 .048-.144.158.158 0 0 1 .068-.082.202.202 0 0 1 .102-.027h.855v-1.463c0-.032.007-.061.02-.089a.206.206 0 0 1 .089-.068.559.559 0 0 1 .178-.048c.073-.01.164-.014.274-.014.113 0 .207.005.28.014a.48.48 0 0 1 .171.048c.041.018.07.04.089.068a.158.158 0 0 1 .027.09v1.462h1.579c.036 0 .068.01.096.027.027.014.05.041.068.082a.374.374 0 0 1 .048.144c.009.06.014.132.014.219 0 .164-.021.282-.062.355-.041.073-.096.11-.164.11h-1.579v3.431c0 .424.061.745.184.964.128.214.354.321.677.321.105 0 .198-.009.281-.027a3.22 3.22 0 0 0 .382-.13.283.283 0 0 1 .123-.034.1.1 0 0 1 .062.02c.023.01.039.03.048.062a.617.617 0 0 1 .034.13c.009.054.014.123.014.205zm3.472-8.388c0 .142-.007.271-.02.39a1.892 1.892 0 0 1-.198.65c-.051.1-.114.204-.192.314l-.936 1.408a.543.543 0 0 1-.082.089.325.325 0 0 1-.11.068.936.936 0 0 1-.15.034 2.7 2.7 0 0 1-.41 0 .344.344 0 0 1-.11-.034.109.109 0 0 1-.041-.068c0-.028.009-.062.028-.103l.909-1.88v-.868c0-.118.011-.214.034-.287a.365.365 0 0 1 .123-.17.465.465 0 0 1 .205-.083c.082-.014.182-.02.301-.02.114 0 .212.006.294.02a.414.414 0 0 1 .198.082.328.328 0 0 1 .116.171.818.818 0 0 1 .041.287zm5.011 7.164c0 .315-.059.595-.178.841a1.681 1.681 0 0 1-.492.622 2.231 2.231 0 0 1-.766.383c-.296.087-.622.13-.977.13a3.51 3.51 0 0 1-.629-.055 3.811 3.811 0 0 1-.533-.123 3.545 3.545 0 0 1-.397-.164 1.28 1.28 0 0 1-.239-.157.389.389 0 0 1-.109-.191 1.294 1.294 0 0 1-.034-.335c0-.087.004-.16.013-.22a.785.785 0 0 1 .034-.143.142.142 0 0 1 .055-.075.157.157 0 0 1 .089-.027c.05 0 .123.032.219.095.1.06.221.126.362.199.146.073.317.14.513.205.196.059.421.088.676.088.192 0 .365-.02.52-.061.155-.041.289-.1.403-.178a.803.803 0 0 0 .26-.307.937.937 0 0 0 .096-.438.697.697 0 0 0-.137-.437 1.24 1.24 0 0 0-.349-.315 2.724 2.724 0 0 0-.492-.239l-.567-.226a6.983 6.983 0 0 1-.568-.26 2.3 2.3 0 0 1-.492-.362 1.68 1.68 0 0 1-.355-.506 1.727 1.727 0 0 1-.13-.704c0-.241.045-.471.137-.69.095-.223.237-.417.423-.581.187-.169.42-.303.698-.404.282-.1.61-.15.984-.15a3.42 3.42 0 0 1 .937.144c.132.04.243.086.335.136.095.046.166.087.211.123a.293.293 0 0 1 .096.096c.018.027.03.06.034.096a.734.734 0 0 1 .021.123 1.375 1.375 0 0 1 0 .39.39.39 0 0 1-.034.136.187.187 0 0 1-.055.082.144.144 0 0 1-.075.02c-.041 0-.1-.024-.178-.074a2.216 2.216 0 0 0-.301-.158 2.989 2.989 0 0 0-.437-.164 1.946 1.946 0 0 0-.568-.075c-.191 0-.36.023-.505.069a.941.941 0 0 0-.363.184.802.802 0 0 0-.212.28.926.926 0 0 0-.068.356c0 .177.046.328.137.451.091.118.209.223.355.314.146.092.312.174.499.246.187.073.376.149.568.226.196.078.387.164.574.26.191.096.36.212.506.348a1.579 1.579 0 0 1 .485 1.176zm11.546 1.429c.036.1.055.182.055.246.004.06-.012.105-.048.137-.037.032-.098.052-.185.061-.082.01-.194.014-.335.014-.141 0-.255-.005-.342-.014a.861.861 0 0 1-.191-.027.26.26 0 0 1-.096-.068.698.698 0 0 1-.054-.103l-.759-2.153h-3.678l-.725 2.126a.383.383 0 0 1-.054.11.314.314 0 0 1-.103.074.65.65 0 0 1-.184.041c-.078.01-.18.014-.308.014-.132 0-.241-.007-.328-.02a.327.327 0 0 1-.178-.062c-.032-.032-.048-.078-.048-.137a.958.958 0 0 1 .062-.246l2.967-8.217a.396.396 0 0 1 .068-.123.326.326 0 0 1 .13-.075.914.914 0 0 1 .219-.034c.091-.01.205-.014.341-.014.146 0 .267.005.363.014a.968.968 0 0 1 .232.034.293.293 0 0 1 .137.082.326.326 0 0 1 .075.123l2.967 8.217zm-3.808-7.253h-.007l-1.524 4.41h3.076l-1.545-4.41zm10.822 4.327c0 .538-.06 1.021-.178 1.45a3.115 3.115 0 0 1-.513 1.093 2.304 2.304 0 0 1-.834.69 2.61 2.61 0 0 1-1.141.24 1.99 1.99 0 0 1-.964-.226 2.734 2.734 0 0 1-.438-.294 7.013 7.013 0 0 1-.465-.417v3.077a.17.17 0 0 1-.027.095.2.2 0 0 1-.089.069.625.625 0 0 1-.171.04c-.073.01-.166.014-.28.014-.109 0-.201-.004-.273-.013a.729.729 0 0 1-.178-.041.2.2 0 0 1-.089-.069.207.207 0 0 1-.021-.096v-8.592c0-.041.007-.073.021-.096a.159.159 0 0 1 .082-.068.473.473 0 0 1 .157-.035c.064-.009.141-.013.233-.013.095 0 .173.004.232.013a.473.473 0 0 1 .157.035c.041.018.069.04.082.068a.145.145 0 0 1 .028.096v.827c.186-.191.366-.358.54-.5.173-.14.346-.257.519-.348a2.34 2.34 0 0 1 .54-.212c.187-.05.383-.075.588-.075.447 0 .827.087 1.142.26.314.173.569.41.765.71.201.302.347.653.438 1.054.091.396.137.818.137 1.264zm-1.19.13c0-.314-.025-.617-.075-.91a2.55 2.55 0 0 0-.246-.785 1.436 1.436 0 0 0-.465-.547c-.196-.137-.44-.205-.731-.205a1.613 1.613 0 0 0-.862.274 2.816 2.816 0 0 0-.458.368c-.159.15-.328.338-.506.561v2.447c.31.378.604.668.882.868.278.2.57.301.875.301.283 0 .524-.068.725-.205.205-.137.369-.319.492-.547.128-.228.221-.483.28-.765a4.17 4.17 0 0 0 .089-.855zm8.545-.13c0 .538-.059 1.021-.178 1.45a3.132 3.132 0 0 1-.512 1.093 2.321 2.321 0 0 1-.834.69c-.333.16-.714.24-1.142.24a2.008 2.008 0 0 1-.964-.226 2.684 2.684 0 0 1-.437-.294 7.013 7.013 0 0 1-.465-.417v3.077a.163.163 0 0 1-.028.095.196.196 0 0 1-.088.069.625.625 0 0 1-.171.04c-.073.01-.167.014-.281.014-.109 0-.2-.004-.273-.013a.74.74 0 0 1-.178-.041.206.206 0 0 1-.089-.069.22.22 0 0 1-.02-.096v-8.592c0-.041.007-.073.02-.096a.159.159 0 0 1 .082-.068.48.48 0 0 1 .158-.035c.063-.009.141-.013.232-.013.096 0 .173.004.232.013a.48.48 0 0 1 .158.035.159.159 0 0 1 .082.068.15.15 0 0 1 .027.096v.827c.187-.191.367-.358.54-.5.173-.14.346-.257.52-.348.177-.096.357-.166.54-.212.187-.05.383-.075.588-.075.446 0 .827.087 1.141.26.315.173.57.41.766.71.2.302.346.653.437 1.054.091.396.137.818.137 1.264zm-1.189.13c0-.314-.025-.617-.076-.91a2.498 2.498 0 0 0-.246-.785 1.436 1.436 0 0 0-.465-.547c-.196-.137-.439-.205-.731-.205a1.608 1.608 0 0 0-.861.274 2.774 2.774 0 0 0-.458.368c-.16.15-.328.338-.506.561v2.447c.31.378.604.668.882.868.278.2.569.301.875.301.282 0 .524-.068.724-.205.205-.137.369-.319.492-.547.128-.228.221-.483.281-.765a4.17 4.17 0 0 0 .089-.855z" fill="#fff"/>
    <defs>
        <clipPath id="7houqpyfya">
            <path fill="#fff" transform="translate(0 18.5)" d="M0 0h35v35H0z"/>
        </clipPath>
    </defs>
</svg>
